<?xml version="1.0" standalone="no"?>
<!DOCTYPE svg PUBLIC "-//W3C//DTD SVG 20010904//EN"
 "http://www.w3.org/TR/2001/REC-SVG-20010904/DTD/svg10.dtd">
<svg version="1.0" xmlns="http://www.w3.org/2000/svg"
 width="100.000000pt" height="100.000000pt" viewBox="0 0 100.000000 100.000000"
 preserveAspectRatio="xMidYMid meet">

<g transform="translate(0.000000,100.000000) scale(0.100000,-0.100000)"
fill="#FFF" stroke="none">
<path d="M226 825 c-93 -63 -148 -108 -158 -130 -22 -49 31 -217 73 -230 16
-5 19 -16 19 -66 0 -33 6 -73 14 -88 19 -36 160 -160 206 -179 47 -21 193 -21
240 0 46 19 187 143 206 179 8 15 14 55 14 88 0 50 3 61 19 66 42 13 95 181
73 230 -13 27 -165 143 -201 152 -15 4 -37 -1 -58 -12 -30 -16 -40 -17 -102
-6 -55 10 -85 10 -144 0 -66 -11 -76 -11 -98 4 -33 23 -60 21 -103 -8z m93
-19 c21 -25 -9 -31 -32 -7 l-21 21 21 0 c11 0 26 -6 32 -14z m394 -7 c-11 -12
-26 -18 -32 -14 -17 10 6 35 32 35 l21 0 -21 -21z m-67 -22 c110 -56 165 -150
172 -297 6 -127 -6 -169 -61 -211 -23 -18 -61 -50 -83 -70 -48 -43 -95 -59
-174 -59 -79 0 -126 16 -174 59 -22 20 -60 52 -83 70 -55 42 -67 84 -61 211 5
110 26 165 84 229 67 74 136 102 249 97 62 -2 91 -8 131 -29z m-376 8 c10 -12
5 -22 -23 -57 -50 -62 -78 -123 -84 -184 -3 -30 -10 -54 -15 -54 -16 0 -50 91
-55 150 l-6 57 56 37 c30 20 61 43 67 51 16 19 44 19 60 0z m520 0 c6 -8 37
-31 67 -51 l56 -37 -6 -57 c-5 -59 -39 -150 -55 -150 -5 0 -12 24 -15 54 -6
61 -34 122 -84 184 -28 35 -33 45 -23 57 16 19 44 19 60 0z"/>
<path d="M430 727 c0 -8 9 -22 20 -32 11 -10 25 -36 32 -57 14 -46 24 -48 33
-8 4 17 18 44 32 60 36 44 23 62 -15 21 l-32 -33 -29 31 c-32 34 -41 38 -41
18z"/>
<path d="M328 690 c-44 -13 -98 -50 -98 -67 0 -13 4 -13 28 3 73 48 103 54
140 28 19 -13 22 -13 22 -1 0 30 -49 50 -92 37z"/>
<path d="M610 687 c-14 -7 -26 -21 -28 -31 -4 -17 -3 -18 19 -2 38 26 67 20
142 -28 24 -16 27 -16 27 -3 0 17 -69 61 -110 70 -14 4 -36 1 -50 -6z"/>
<path d="M415 610 c4 -6 11 -8 16 -5 14 9 11 15 -7 15 -8 0 -12 -5 -9 -10z"/>
<path d="M565 610 c3 -5 8 -10 11 -10 2 0 4 5 4 10 0 6 -5 10 -11 10 -5 0 -7
-4 -4 -10z"/>
<path d="M415 560 c4 -6 11 -8 16 -5 14 9 11 15 -7 15 -8 0 -12 -5 -9 -10z"/>
<path d="M565 560 c4 -6 11 -8 16 -5 14 9 11 15 -7 15 -8 0 -12 -5 -9 -10z"/>
<path d="M247 532 c-20 -22 -22 -73 -5 -90 22 -22 84 -14 117 14 37 31 31 52
-23 78 -44 21 -69 20 -89 -2z m58 -47 c0 -16 -5 -30 -10 -32 -7 -2 -11 12 -11
32 0 20 4 34 11 32 5 -2 10 -16 10 -32z"/>
<path d="M662 533 c-52 -25 -58 -47 -21 -77 33 -28 95 -36 117 -14 18 18 14
73 -6 91 -23 21 -48 21 -90 0z m54 -48 c0 -20 -4 -34 -10 -32 -13 4 -20 33
-12 53 10 26 22 15 22 -21z"/>
<path d="M455 460 c-6 -9 33 -70 45 -70 12 0 51 61 45 70 -3 6 -24 10 -45 10
-21 0 -42 -4 -45 -10z"/>
<path d="M400 390 c0 -5 5 -10 10 -10 6 0 10 5 10 10 0 6 -4 10 -10 10 -5 0
-10 -4 -10 -10z"/>
<path d="M580 390 c0 -5 5 -10 10 -10 6 0 10 5 10 10 0 6 -4 10 -10 10 -5 0
-10 -4 -10 -10z"/>
<path d="M340 350 c0 -5 5 -10 10 -10 6 0 10 5 10 10 0 6 -4 10 -10 10 -5 0
-10 -4 -10 -10z"/>
<path d="M640 350 c0 -5 5 -10 10 -10 6 0 10 5 10 10 0 6 -4 10 -10 10 -5 0
-10 -4 -10 -10z"/>
<path d="M400 310 c0 -5 5 -10 10 -10 6 0 10 5 10 10 0 6 -4 10 -10 10 -5 0
-10 -4 -10 -10z"/>
<path d="M420 284 c-65 -41 -79 -42 -118 -9 -17 14 -33 22 -35 18 -8 -12 15
-39 49 -60 17 -10 45 -28 63 -40 63 -41 179 -41 242 0 18 12 46 30 63 40 34
21 57 48 49 60 -2 4 -18 -4 -35 -18 -39 -33 -53 -32 -122 10 -32 19 -68 35
-80 34 -11 -1 -46 -16 -76 -35z m141 -20 c32 -20 59 -39 59 -41 0 -12 -76 -33
-120 -33 -49 0 -129 24 -118 36 8 7 112 73 116 74 2 0 31 -16 63 -36z"/>
<path d="M580 310 c0 -5 5 -10 10 -10 6 0 10 5 10 10 0 6 -4 10 -10 10 -5 0
-10 -4 -10 -10z"/>
<path d="M340 275 c0 -8 5 -15 10 -15 6 0 10 7 10 15 0 8 -4 15 -10 15 -5 0
-10 -7 -10 -15z"/>
<path d="M640 275 c0 -8 5 -15 10 -15 6 0 10 7 10 15 0 8 -4 15 -10 15 -5 0
-10 -7 -10 -15z"/>
</g>
</svg>
